<svg width="465" height="346" viewBox="0 0 465 346" fill="none" xmlns="http://www.w3.org/2000/svg">
<path d="M40.55 186.003C47.9321 167.732 68.7284 158.904 86.9997 166.286L365.844 278.947L339.111 345.113L60.2667 232.453C41.9954 225.071 33.1679 204.274 40.55 186.003Z" fill="#59B17A" fill-opacity="0.08"/>
<path d="M139.101 33.0832C146.483 14.8119 167.279 5.98438 185.55 13.3665L464.395 126.027L437.662 192.193L158.818 79.5329C140.546 72.1508 131.719 51.3546 139.101 33.0832Z" fill="#59B17A" fill-opacity="0.08"/>
<path d="M13.3664 78.9592C20.7485 60.6878 41.5448 51.8604 59.8161 59.2425L338.66 171.903L311.927 238.069L33.0831 125.409C14.8118 118.027 5.98432 97.2305 13.3664 78.9592Z" fill="#59B17A" fill-opacity="0.08"/>
</svg>
