<svg width="12" height="14" viewBox="0 0 12 14" fill="none" xmlns="http://www.w3.org/2000/svg">
<path d="M7.83444 5.08733V1.33333H8.50111C8.67792 1.33333 8.84749 1.2631 8.97251 1.13807C9.09754 1.01305 9.16777 0.843478 9.16777 0.666667C9.16777 0.489856 9.09754 0.320286 8.97251 0.195262C8.84749 0.0702379 8.67792 0 8.50111 0H3.16777C2.99096 0 2.82139 0.0702379 2.69637 0.195262C2.57134 0.320286 2.50111 0.489856 2.50111 0.666667C2.50111 0.843478 2.57134 1.01305 2.69637 1.13807C2.82139 1.2631 2.99096 1.33333 3.16777 1.33333H3.83444V5.08733L0.349773 10.208C-0.553561 11.536 0.397773 13.3333 2.00311 13.3333H9.66511C11.2718 13.3333 12.2224 11.536 11.3184 10.208L7.83444 5.088V5.08733Z" fill="#DCDDDF"/>
</svg>
