<svg xmlns="http://www.w3.org/2000/svg" aria-hidden="true" style="position:absolute;width:0;height:0;overflow:hidden">
  <defs>
 <symbol id="icon-elements" viewBox="0 0 43 32">
<path d="M3.75 17.203c0.683-1.69 2.606-2.506 4.296-1.824l25.789 10.419-2.472 6.119-25.789-10.419c-1.69-0.683-2.506-2.606-1.824-4.296z"></path>
<path d="M12.865 3.060c0.683-1.69 2.606-2.506 4.296-1.823l25.789 10.419-2.472 6.119-25.789-10.419c-1.69-0.683-2.506-2.606-1.824-4.296z"></path>
<path d="M1.236 7.303c0.683-1.69 2.606-2.506 4.296-1.824l25.789 10.419-2.472 6.119-25.789-10.419c-1.69-0.683-2.506-2.606-1.823-4.296z"></path>
</symbol>
<symbol id="icon-vline" viewBox="0 0 3 32">
<path stroke-linejoin="miter" stroke-linecap="butt" stroke-miterlimit="4" stroke-width="2.6667" d="M1.333 0v32"></path>
</symbol>
<symbol id="icon-logout" viewBox="0 0 30 32">
<path d="M4.571 0c-1.212 0-2.375 0.482-3.232 1.339s-1.339 2.020-1.339 3.232v21.333c0 1.213 0.482 2.375 1.339 3.232s2.020 1.339 3.232 1.339h9.143c1.212 0 2.375-0.482 3.232-1.339s1.339-2.020 1.339-3.232v-21.333c0-1.212-0.482-2.375-1.339-3.232s-2.020-1.339-3.232-1.339h-9.143zM20.256 8.066c0.286-0.286 0.673-0.446 1.077-0.446s0.792 0.16 1.077 0.446l6.095 6.095c0.286 0.286 0.446 0.673 0.446 1.077s-0.16 0.792-0.446 1.077l-6.095 6.095c-0.287 0.278-0.672 0.431-1.072 0.428s-0.782-0.164-1.064-0.446c-0.282-0.283-0.443-0.665-0.446-1.064s0.15-0.784 0.428-1.072l3.494-3.494h-13.084c-0.404 0-0.792-0.161-1.078-0.446s-0.446-0.673-0.446-1.078c0-0.404 0.161-0.792 0.446-1.078s0.673-0.446 1.078-0.446h13.084l-3.494-3.494c-0.286-0.286-0.446-0.673-0.446-1.077s0.16-0.792 0.446-1.077z"></path>
</symbol>
<symbol id="icon-dashboard" viewBox="0 0 32 32">
<path d="M1.778 17.778h10.667c0.978 0 1.778-0.8 1.778-1.778v-14.222c0-0.978-0.8-1.778-1.778-1.778h-10.667c-0.978 0-1.778 0.8-1.778 1.778v14.222c0 0.978 0.8 1.778 1.778 1.778zM1.778 32h10.667c0.978 0 1.778-0.8 1.778-1.778v-7.111c0-0.978-0.8-1.778-1.778-1.778h-10.667c-0.978 0-1.778 0.8-1.778 1.778v7.111c0 0.978 0.8 1.778 1.778 1.778zM19.556 32h10.667c0.978 0 1.778-0.8 1.778-1.778v-14.222c0-0.978-0.8-1.778-1.778-1.778h-10.667c-0.978 0-1.778 0.8-1.778 1.778v14.222c0 0.978 0.8 1.778 1.778 1.778zM17.778 1.778v7.111c0 0.978 0.8 1.778 1.778 1.778h10.667c0.978 0 1.778-0.8 1.778-1.778v-7.111c0-0.978-0.8-1.778-1.778-1.778h-10.667c-0.978 0-1.778 0.8-1.778 1.778z"></path>
</symbol>
<symbol id="icon-flaskFill" viewBox="0 0 27 32">
<path d="M17.907 11.628v-8.581h1.524c0.404 0 0.792-0.161 1.078-0.446s0.446-0.673 0.446-1.077c0-0.404-0.161-0.792-0.446-1.077s-0.673-0.446-1.078-0.446h-12.191c-0.404 0-0.792 0.161-1.077 0.446s-0.446 0.673-0.446 1.077c0 0.404 0.161 0.792 0.446 1.077s0.673 0.446 1.077 0.446h1.524v8.581l-7.965 11.704c-2.065 3.035 0.11 7.144 3.779 7.144h17.513c3.672 0 5.845-4.108 3.779-7.144l-7.963-11.704z"></path>
</symbol>
<symbol id="icon-cart" viewBox="0 0 32 32">
<path d="M9.143 24.381c-1.676 0-3.032 1.371-3.032 3.048s1.356 3.048 3.032 3.048c1.676 0 3.048-1.371 3.048-3.048s-1.371-3.048-3.048-3.048zM0 1.524c0 0.838 0.686 1.524 1.524 1.524h1.524l5.486 11.566-2.057 3.718c-1.112 2.042 0.351 4.526 2.667 4.526h16.762c0.838 0 1.524-0.686 1.524-1.524s-0.686-1.524-1.524-1.524h-16.762l1.676-3.048h11.352c1.143 0 2.149-0.625 2.667-1.569l5.455-9.89c0.128-0.231 0.194-0.491 0.191-0.756s-0.075-0.523-0.209-0.751-0.325-0.417-0.554-0.548c-0.229-0.131-0.489-0.2-0.753-0.201h-22.552l-1.021-2.179c-0.122-0.26-0.316-0.48-0.559-0.634s-0.525-0.235-0.812-0.235h-2.499c-0.838 0-1.524 0.686-1.524 1.524zM24.381 24.381c-1.676 0-3.032 1.371-3.032 3.048s1.356 3.048 3.032 3.048c1.676 0 3.048-1.371 3.048-3.048s-1.371-3.048-3.048-3.048z"></path>
</symbol>
<symbol id="icon-localPharmacy" viewBox="0 0 27 32">
<path d="M19.81 19.81h-4.571v4.572h-3.048v-4.572h-4.571v-3.048h4.571v-4.571h3.048v4.571h4.571zM27.429 6.095h-4.038l1.752-4.8-3.581-1.295-2.225 6.095h-19.337v3.048l3.048 9.143-3.048 9.143v3.048h27.429v-3.048l-3.048-9.143 3.048-9.143v-3.048z"></path>
</symbol>
<symbol id="icon-users" viewBox="0 0 45 32">
<path d="M29.867 27.733v4.267h-29.867v-4.267c0 0 0-8.533 14.933-8.533s14.933 8.533 14.933 8.533zM22.4 7.467c0-1.477-0.438-2.92-1.258-4.148s-1.987-2.185-3.351-2.75c-1.364-0.565-2.866-0.713-4.314-0.425s-2.779 0.999-3.823 2.043-1.755 2.375-2.043 3.823c-0.288 1.448-0.14 2.95 0.425 4.314s1.522 2.53 2.75 3.351c1.228 0.82 2.671 1.258 4.148 1.258 1.98 0 3.879-0.787 5.28-2.187s2.187-3.299 2.187-5.28zM29.739 19.2c1.311 1.015 2.385 2.305 3.144 3.779s1.186 3.097 1.251 4.754v4.267h8.533v-4.267c0 0 0-7.744-12.928-8.533zM27.733 0c-1.468-0.008-2.904 0.431-4.117 1.259 1.296 1.811 1.993 3.981 1.993 6.208s-0.697 4.397-1.993 6.208c1.213 0.828 2.649 1.267 4.117 1.259 1.98 0 3.879-0.787 5.28-2.187s2.187-3.299 2.187-5.28-0.787-3.879-2.187-5.28c-1.4-1.4-3.3-2.187-5.28-2.187z"></path>
</symbol>
  </defs>
</svg>
