<svg width="14" height="10" viewBox="0 0 14 10" fill="none" xmlns="http://www.w3.org/2000/svg">
<path d="M9.33333 8.6667V10H0V8.6667C0 8.6667 0 6.00004 4.66667 6.00004C9.33333 6.00004 9.33333 8.6667 9.33333 8.6667ZM7 2.33337C7 1.87188 6.86315 1.42075 6.60676 1.03704C6.35037 0.653323 5.98596 0.354254 5.55959 0.17765C5.13323 0.00104511 4.66408 -0.0451627 4.21146 0.0448695C3.75883 0.134902 3.34307 0.35713 3.01675 0.683453C2.69043 1.00978 2.4682 1.42554 2.37817 1.87816C2.28814 2.33078 2.33434 2.79994 2.51095 3.2263C2.68755 3.65266 2.98662 4.01708 3.37034 4.27347C3.75405 4.52986 4.20518 4.6667 4.66667 4.6667C5.2855 4.6667 5.879 4.42087 6.31658 3.98328C6.75417 3.5457 7 2.95221 7 2.33337ZM9.29333 6.00004C9.70317 6.3172 10.0385 6.72032 10.2758 7.18104C10.5131 7.64176 10.6465 8.14887 10.6667 8.6667V10H13.3333V8.6667C13.3333 8.6667 13.3333 6.2467 9.29333 6.00004ZM8.66667 3.50527e-05C8.20779 -0.00252009 7.75901 0.134672 7.38 0.393369C7.78496 0.959193 8.0027 1.63756 8.0027 2.33337C8.0027 3.02918 7.78496 3.70754 7.38 4.27337C7.75901 4.53207 8.20779 4.66926 8.66667 4.6667C9.2855 4.6667 9.879 4.42087 10.3166 3.98328C10.7542 3.5457 11 2.95221 11 2.33337C11 1.71453 10.7542 1.12104 10.3166 0.683453C9.879 0.245868 9.2855 3.50527e-05 8.66667 3.50527e-05Z" fill="#DCDDDF"/>
</svg>
